# xmcd
#
# Track frame offsets:
#	150
#	22005
#	38217
#	54852
#	72267
#	88337
#	103135
#	122780
#	141847
#	162557
#	180137
#	201197
#	219845
#	242635
#	265337
#	282210
#	300807
#
# Disc length: 4200 seconds
#
# Revision: 1
# Processed by: cddbd v1.5.1PL0 Copyright (c) Steve Scherf et al.
# Submitted via: CDex 1.50Beta5
#
DISCID=ed106611
DTITLE=AQUA - リミックス・スーパーベスト
DYEAR=2002
DGENRE=
TTITLE0=カートゥーン・ヒーローズ[エリート・エクステンデッド・ミックス]
TTITLE1=アラウンド・ザ・ワールド[サウンド・サーファーズ・ラジオ・エディット]
TTITLE2=バンブル・ビー[ハンペンベルグズ・ポップ・ミックス]
TTITLE3=愛しのバービー・ガール[パーキー・パーク・クラブ・ミックス]
TTITLE4=ドクター・ジョーンズ[メトロズ・7インチ・エディット]
TTITLE5=マイ・オー・マイ[スパイク、クライド・アンド・エイトボール・クラブ・ミックス]
TTITLE6=キャンディマン[エクステンデッド・オリジナル・ミックス]
TTITLE7=ときめきダンディ・ダディダ(ローゼズ・アー・レッド)[クラブ・ヴァージョン]
TTITLE8=アラウンド・ザ・ワールド[デイヴ・シアーズ・クラブ・ミックス]
TTITLE9=バンブル・ビー[ラズ・クラブ・ミックス]
TTITLE10=愛しのバービー・ガール[オリジナル・エクステンデッド・ミックス]
TTITLE11=ドクター・ジョーンズ[アドレナリン・クラブ・ミックス]
TTITLE12=マイ・オー・マイ[エクステンデッド・ヴァージョン]
TTITLE13=ときめきダンディ・ダディダ(ローゼズ・アー・レッド)[エクステンデッド・ヴァージョン]
TTITLE14=グッド・モーニング・サンシャイン[ラヴ・トゥ・インフィニティズ・ラジオ・ミックス]
TTITLE15=ターン・バック・タイム[ラヴ・トゥ・インフィニティズ・クラシック・パラダイス・ミックス]
TTITLE16=カートゥーン・ヒーローズ[ラヴ・トゥ・インフィニティ・クラシック・ミックス]
EXTD=
EXTT0=
EXTT1=
EXTT2=
EXTT3=
EXTT4=
EXTT5=
EXTT6=
EXTT7=
EXTT8=
EXTT9=
EXTT10=
EXTT11=
EXTT12=
EXTT13=
EXTT14=
EXTT15=
EXTT16=
PLAYORDER=
